# xmcd CD database file
#
# Track frame offsets:
#	150
#	18220
#	37313
#	62011
#	79344
#	97635
#	114672
#	131142
#	146591
#	166462
#
# Disc length: 2353 seconds
#
# Revision: 2
# Processed by: cddbd v1.5.2PL0 Copyright (c) Steve Scherf et al.
# Submitted via: CDex 1.70beta2
#
DISCID=85092f0a
DTITLE=Patti Scialfa - Play It As It Lays
DYEAR=2007
DGENRE=Rock
TTITLE0=Looking For Elvis
TTITLE1=Like Any Woman Would
TTITLE2=Town Called Heartbreak
TTITLE3=Play Around
TTITLE4=Rainy Day Man
TTITLE5=The Word
TTITLE6=Bad For You
TTITLE7=Run, Run, Run
TTITLE8=Play It As It Lays
TTITLE9=Black Ladder
EXTD=YEAR: 2007
EXTT0=
EXTT1=
EXTT2=
EXTT3=
EXTT4=
EXTT5=
EXTT6=
EXTT7=
EXTT8=
EXTT9=
PLAYORDER=
